<svg width="16" height="16" viewBox="0 0 16 16" fill="none" xmlns="http://www.w3.org/2000/svg">
<rect width="16" height="16" fill="#212529"/>
<path d="M4.58613 2C4.17651 2 3.84467 2.33244 3.84467 2.74206V8.37873C3.84467 8.78835 4.17711 9.12079 4.58613 9.12079H4.88295C5.29257 9.12079 5.62442 8.78835 5.62442 8.37873V2.74146C5.62442 2.33185 5.29198 2 4.88236 2H4.58672H4.58613ZM6.95894 2C6.54932 2 6.21688 2.33244 6.21688 2.74206V8.37873C6.21688 8.78835 6.54932 9.12079 6.95894 9.12079H7.25576C7.66478 9.12079 7.99663 8.78835 7.99663 8.37873V2.74146C7.99663 2.33244 7.66478 2 7.25517 2H6.95834H6.95894ZM10.3582 3.64856C10.287 3.47159 10.1504 3.32886 9.97667 3.25003C9.80298 3.1712 9.60559 3.16234 9.42554 3.22529L9.08004 3.34639C8.98549 3.37958 8.89865 3.43157 8.82475 3.49924C8.75085 3.5669 8.69141 3.64882 8.65003 3.74008C8.60865 3.83133 8.58617 3.93002 8.58396 4.03019C8.58176 4.13037 8.59986 4.22995 8.63718 4.32294L10.3807 8.65893C10.5285 9.027 10.9387 9.21281 11.3133 9.0822L11.6588 8.9611C11.7535 8.92792 11.8404 8.8759 11.9143 8.8082C11.9883 8.7405 12.0477 8.65851 12.0891 8.56719C12.1305 8.47586 12.153 8.3771 12.1551 8.27686C12.1573 8.17662 12.1391 8.07698 12.1017 7.98396L10.3582 3.64856Z" fill="white"/>
<path d="M4.20744 11.3134C4.3493 11.3134 4.48046 11.3522 4.60091 11.4298C4.72136 11.5048 4.81638 11.6078 4.88597 11.739C4.95824 11.8702 4.99438 12.0147 4.99438 12.1726C4.99438 12.3305 4.95824 12.4764 4.88597 12.6103C4.81638 12.7441 4.72136 12.8498 4.60091 12.9274C4.48046 13.0051 4.3493 13.0439 4.20744 13.0439H3.45262V13.9312C3.45262 13.9847 3.43522 14.0302 3.40043 14.0677C3.36563 14.1052 3.32147 14.1239 3.26793 14.1239C3.21172 14.1239 3.16622 14.1065 3.13142 14.0717C3.0993 14.0342 3.08324 13.9874 3.08324 13.9312V11.5061C3.08324 11.4526 3.10198 11.4071 3.13945 11.3696C3.17693 11.3321 3.22243 11.3134 3.27596 11.3134H4.20744ZM4.20744 12.6785C4.27971 12.6785 4.34663 12.6558 4.40819 12.6103C4.46975 12.5621 4.51793 12.4992 4.55273 12.4215C4.5902 12.3439 4.60894 12.2609 4.60894 12.1726C4.60894 12.0361 4.56879 11.921 4.48849 11.8273C4.41087 11.731 4.31718 11.6828 4.20744 11.6828H3.45262V12.6785H4.20744ZM5.17907 14.1199C5.11483 14.1199 5.06531 14.1025 5.03051 14.0677C4.99839 14.0329 4.98233 13.982 4.98233 13.9151V13.8388C4.98233 13.7746 4.99839 13.7251 5.03051 13.6903C5.06531 13.6555 5.11483 13.6381 5.17907 13.6381H5.21922C5.28613 13.6381 5.33565 13.6555 5.36777 13.6903C5.40257 13.7251 5.41997 13.7746 5.41997 13.8388V13.9151C5.41997 14.0516 5.35305 14.1199 5.21922 14.1199H5.17907Z" fill="white"/>
<path d="M8.11283 13.7987C8.14227 13.8362 8.15699 13.8803 8.15699 13.9312C8.15699 13.9901 8.13424 14.0382 8.08874 14.0757C8.04591 14.1132 7.99639 14.1319 7.94018 14.1319C7.88665 14.1319 7.83981 14.1078 7.79966 14.0597L6.82402 12.803L6.37434 13.2286V13.9272C6.37434 13.9834 6.3556 14.0302 6.31813 14.0677C6.28066 14.1052 6.23248 14.1239 6.17359 14.1239C6.1147 14.1239 6.06652 14.1052 6.02905 14.0677C5.99425 14.0302 5.97686 13.9834 5.97686 13.9272V11.5061C5.97686 11.4526 5.99559 11.4071 6.03307 11.3696C6.07054 11.3321 6.11872 11.3134 6.17761 11.3134C6.23649 11.3134 6.28333 11.3321 6.31813 11.3696C6.3556 11.4044 6.37434 11.4499 6.37434 11.5061V12.7548L7.79966 11.3736C7.85052 11.3281 7.90137 11.3054 7.95223 11.3054C8.00041 11.3054 8.0419 11.3255 8.07669 11.3656C8.11149 11.4058 8.12889 11.4486 8.12889 11.4941C8.12889 11.5342 8.11015 11.5757 8.07268 11.6186L7.12113 12.5179L8.11283 13.7987ZM8.95231 13.9312C8.95231 13.9847 8.93357 14.0302 8.8961 14.0677C8.8613 14.1052 8.8158 14.1239 8.75959 14.1239C8.70605 14.1239 8.66055 14.1052 8.62308 14.0677C8.58828 14.0302 8.57088 13.9847 8.57088 13.9312V12.1927C8.57088 12.1392 8.58828 12.0937 8.62308 12.0562C8.66055 12.0187 8.70605 12 8.75959 12C8.8158 12 8.8613 12.0187 8.8961 12.0562C8.93357 12.0937 8.95231 12.1392 8.95231 12.1927V13.9312ZM8.75959 11.735C8.68196 11.735 8.62575 11.7216 8.59096 11.6948C8.55884 11.6654 8.54278 11.6199 8.54278 11.5583V11.4941C8.54278 11.4298 8.56017 11.3843 8.59497 11.3576C8.63244 11.3308 8.68865 11.3174 8.7636 11.3174C8.83855 11.3174 8.89208 11.3321 8.9242 11.3616C8.959 11.3884 8.9764 11.4325 8.9764 11.4941V11.5583C8.9764 11.6226 8.959 11.6681 8.9242 11.6948C8.8894 11.7216 8.83453 11.735 8.75959 11.735ZM10.0707 12.3934V13.5899C10.0707 13.7237 10.131 13.7907 10.2514 13.7907C10.2701 13.7907 10.2956 13.7866 10.3277 13.7786C10.3598 13.7679 10.3852 13.7626 10.404 13.7626C10.4388 13.7626 10.4682 13.7773 10.4923 13.8067C10.5164 13.8362 10.5284 13.8736 10.5284 13.9191C10.5284 13.9753 10.4963 14.0235 10.4321 14.0637C10.3678 14.1038 10.2956 14.1239 10.2153 14.1239C10.1269 14.1239 10.0453 14.1145 9.97035 14.0958C9.89809 14.0771 9.83251 14.0302 9.77362 13.9553C9.71741 13.8776 9.68931 13.7612 9.68931 13.606V12.3934H9.45644C9.40558 12.3934 9.36275 12.3774 9.32796 12.3453C9.29584 12.3105 9.27978 12.2676 9.27978 12.2168C9.27978 12.1659 9.29584 12.1244 9.32796 12.0923C9.36275 12.0602 9.40558 12.0441 9.45644 12.0441H9.68931V11.7069C9.68931 11.6533 9.7067 11.6078 9.7415 11.5704C9.77897 11.5329 9.82582 11.5142 9.88203 11.5142C9.93556 11.5142 9.97972 11.5329 10.0145 11.5704C10.052 11.6078 10.0707 11.6533 10.0707 11.7069V12.0441H10.404C10.4548 12.0441 10.4963 12.0615 10.5284 12.0963C10.5632 12.1285 10.5806 12.1699 10.5806 12.2208C10.5806 12.2717 10.5632 12.3131 10.5284 12.3453C10.4963 12.3774 10.4548 12.3934 10.404 12.3934H10.0707ZM12.7322 11.9919C12.7884 11.9919 12.8339 12.0107 12.8687 12.0482C12.9062 12.083 12.9249 12.1298 12.9249 12.1887V13.9312C12.9249 13.9847 12.9062 14.0302 12.8687 14.0677C12.8339 14.1052 12.7884 14.1239 12.7322 14.1239C12.676 14.1239 12.6305 14.1065 12.5957 14.0717C12.5609 14.0342 12.5435 13.9874 12.5435 13.9312V13.8268C12.4739 13.9205 12.3789 14.0008 12.2584 14.0677C12.138 14.1319 12.0082 14.1641 11.869 14.1641C11.687 14.1641 11.521 14.1172 11.3711 14.0235C11.2239 13.9298 11.1075 13.8 11.0218 13.6341C10.9388 13.4654 10.8973 13.2767 10.8973 13.068C10.8973 12.8592 10.9388 12.6718 11.0218 12.5059C11.1075 12.3372 11.2239 12.2061 11.3711 12.1124C11.5183 12.0187 11.6803 11.9719 11.8569 11.9719C11.9988 11.9719 12.1299 12.0013 12.2504 12.0602C12.3735 12.1191 12.4712 12.194 12.5435 12.285V12.1887C12.5435 12.1325 12.5609 12.0856 12.5957 12.0482C12.6305 12.0107 12.676 11.9919 12.7322 11.9919ZM11.9131 13.8107C12.0389 13.8107 12.15 13.7786 12.2464 13.7144C12.3454 13.6501 12.4217 13.5618 12.4752 13.4494C12.5314 13.337 12.5595 13.2098 12.5595 13.068C12.5595 12.9288 12.5314 12.803 12.4752 12.6906C12.4217 12.5781 12.3454 12.4898 12.2464 12.4256C12.15 12.3586 12.0389 12.3252 11.9131 12.3252C11.7873 12.3252 11.6749 12.3573 11.5759 12.4215C11.4795 12.4858 11.4032 12.5741 11.347 12.6865C11.2935 12.799 11.2667 12.9261 11.2667 13.068C11.2667 13.2098 11.2935 13.337 11.347 13.4494C11.4032 13.5618 11.4795 13.6501 11.5759 13.7144C11.6749 13.7786 11.7873 13.8107 11.9131 13.8107Z" fill="#FFC107"/>
</svg>
