<svg width="239" height="29" viewBox="0 0 239 29" fill="none" xmlns="http://www.w3.org/2000/svg">
<path d="M2.58735 2.07056C1.15799 2.07056 0 3.23062 0 4.65997V24.3292C0 25.7585 1.16006 26.9186 2.58735 26.9186H3.62311C5.05247 26.9186 6.21046 25.7585 6.21046 24.3292V4.6579C6.21046 3.22854 5.0504 2.07056 3.62104 2.07056H2.58942H2.58735ZM10.8673 2.07056C9.43791 2.07056 8.27785 3.23062 8.27785 4.65997V24.3292C8.27785 25.7585 9.43791 26.9186 10.8673 26.9186H11.903C13.3303 26.9186 14.4883 25.7585 14.4883 24.3292V4.6579C14.4883 3.23062 13.3303 2.07056 11.901 2.07056H10.8652H10.8673ZM22.7289 7.8232C22.4805 7.20568 22.0038 6.70761 21.3977 6.43254C20.7916 6.15746 20.1028 6.12654 19.4745 6.3462L18.2689 6.76879C17.939 6.88461 17.6359 7.06604 17.378 7.30215C17.1202 7.53825 16.9128 7.82414 16.7683 8.14257C16.6239 8.46099 16.5455 8.80537 16.5378 9.15493C16.5301 9.50448 16.5933 9.85198 16.7235 10.1765L22.8076 25.3069C23.3234 26.5913 24.7548 27.2397 26.062 26.784L27.2676 26.3614C27.5977 26.2456 27.901 26.0641 28.1591 25.8278C28.4171 25.5916 28.6246 25.3055 28.7691 24.9868C28.9135 24.6681 28.9919 24.3235 28.9994 23.9737C29.0069 23.6239 28.9435 23.2762 28.813 22.9516L22.7289 7.8232Z" fill="white"/>
<path d="M47.5305 6.55C48.3608 6.55 49.1285 6.77717 49.8335 7.2315C50.5385 7.67017 51.0947 8.27333 51.502 9.041C51.925 9.80867 52.1365 10.6547 52.1365 11.579C52.1365 12.5033 51.925 13.3572 51.502 14.1405C51.0947 14.9238 50.5385 15.5427 49.8335 15.997C49.1285 16.4513 48.3608 16.6785 47.5305 16.6785H43.1125V21.872C43.1125 22.1853 43.0107 22.4517 42.807 22.671C42.6033 22.8903 42.3448 23 42.0315 23C41.7025 23 41.4362 22.8982 41.2325 22.6945C41.0445 22.4752 40.9505 22.201 40.9505 21.872V7.678C40.9505 7.36467 41.0602 7.09833 41.2795 6.879C41.4988 6.65967 41.7652 6.55 42.0785 6.55H47.5305ZM47.5305 14.54C47.9535 14.54 48.3452 14.4068 48.7055 14.1405C49.0658 13.8585 49.3478 13.4903 49.5515 13.036C49.7708 12.5817 49.8805 12.096 49.8805 11.579C49.8805 10.78 49.6455 10.1063 49.1755 9.558C48.7212 8.994 48.1728 8.712 47.5305 8.712H43.1125V14.54H47.5305ZM65.3398 16.373C65.3242 16.655 65.2067 16.8978 64.9873 17.1015C64.768 17.2895 64.5095 17.3835 64.2118 17.3835H55.9398C56.0495 18.5272 56.4803 19.4437 57.2323 20.133C58 20.8223 58.9322 21.167 60.0288 21.167C60.7808 21.167 61.3918 21.0573 61.8618 20.838C62.3318 20.6187 62.747 20.3367 63.1073 19.992C63.3423 19.851 63.5695 19.7805 63.7888 19.7805C64.0552 19.7805 64.2745 19.8745 64.4468 20.0625C64.6348 20.2505 64.7288 20.4698 64.7288 20.7205C64.7288 21.0495 64.5722 21.3472 64.2588 21.6135C63.8045 22.0678 63.2013 22.4517 62.4493 22.765C61.6973 23.0783 60.9297 23.235 60.1463 23.235C58.8773 23.235 57.7572 22.9687 56.7858 22.436C55.8302 21.9033 55.086 21.1592 54.5533 20.2035C54.0363 19.2478 53.7778 18.1668 53.7778 16.9605C53.7778 15.6445 54.0442 14.493 54.5768 13.506C55.1252 12.5033 55.838 11.7357 56.7153 11.203C57.6083 10.6703 58.564 10.404 59.5823 10.404C60.585 10.404 61.525 10.6625 62.4023 11.1795C63.2797 11.6965 63.9847 12.4093 64.5173 13.318C65.05 14.2267 65.3242 15.245 65.3398 16.373ZM59.5823 12.472C58.705 12.472 57.9452 12.7227 57.3028 13.224C56.6605 13.7097 56.2375 14.4695 56.0338 15.5035H62.9663V15.3155C62.888 14.4852 62.512 13.8037 61.8383 13.271C61.1803 12.7383 60.4283 12.472 59.5823 12.472ZM74.0657 10.404C74.473 10.404 74.8255 10.5137 75.1232 10.733C75.4208 10.9367 75.5697 11.1952 75.5697 11.5085C75.5697 11.8845 75.4678 12.1743 75.2642 12.378C75.0762 12.566 74.8412 12.66 74.5592 12.66C74.4182 12.66 74.2067 12.613 73.9247 12.519C73.5957 12.4093 73.3372 12.3545 73.1492 12.3545C72.6635 12.3545 72.1857 12.5268 71.7157 12.8715C71.2613 13.2005 70.8853 13.6627 70.5877 14.258C70.3057 14.8377 70.1647 15.4878 70.1647 16.2085V21.872C70.1647 22.1853 70.055 22.4517 69.8357 22.671C69.632 22.8903 69.3657 23 69.0367 23C68.7077 23 68.4413 22.8982 68.2377 22.6945C68.034 22.4752 67.9322 22.201 67.9322 21.872V11.814C67.9322 11.5007 68.034 11.2343 68.2377 11.015C68.457 10.7957 68.7233 10.686 69.0367 10.686C69.3657 10.686 69.632 10.7957 69.8357 11.015C70.055 11.2343 70.1647 11.5007 70.1647 11.814V13.0125C70.5093 12.2448 71.0263 11.626 71.7157 11.156C72.405 10.6703 73.1883 10.4197 74.0657 10.404ZM83.8202 10.4745C84.8855 10.4745 85.849 10.7487 86.7107 11.297C87.5724 11.8297 88.246 12.5817 88.7317 13.553C89.233 14.5243 89.4837 15.621 89.4837 16.843C89.4837 18.065 89.233 19.1617 88.7317 20.133C88.246 21.0887 87.5724 21.8407 86.7107 22.389C85.849 22.9373 84.9012 23.2115 83.8672 23.2115C83.0525 23.2115 82.2927 23.0313 81.5877 22.671C80.8827 22.3107 80.3109 21.872 79.8722 21.355V26.572C79.8722 26.8853 79.7625 27.1517 79.5432 27.371C79.3395 27.5903 79.0732 27.7 78.7442 27.7C78.4309 27.7 78.1645 27.5903 77.9452 27.371C77.7415 27.1673 77.6397 26.901 77.6397 26.572V11.7905C77.6397 11.4615 77.7415 11.1873 77.9452 10.968C78.1489 10.7487 78.4152 10.639 78.7442 10.639C79.0732 10.639 79.3395 10.7487 79.5432 10.968C79.7625 11.1873 79.8722 11.4615 79.8722 11.7905V12.472C80.2482 11.9237 80.7965 11.4537 81.5172 11.062C82.2379 10.6703 83.0055 10.4745 83.8202 10.4745ZM83.5617 21.1435C84.2824 21.1435 84.9325 20.9555 85.5122 20.5795C86.0919 20.2035 86.5384 19.6943 86.8517 19.052C87.1807 18.394 87.3452 17.6577 87.3452 16.843C87.3452 16.0283 87.1807 15.2998 86.8517 14.6575C86.5384 13.9995 86.0919 13.4825 85.5122 13.1065C84.9325 12.7305 84.2824 12.5425 83.5617 12.5425C82.8254 12.5425 82.1674 12.7305 81.5877 13.1065C81.008 13.4668 80.5537 13.976 80.2247 14.634C79.9114 15.292 79.7547 16.0283 79.7547 16.843C79.7547 17.6577 79.9114 18.394 80.2247 19.052C80.5537 19.71 81.008 20.227 81.5877 20.603C82.1674 20.9633 82.8254 21.1435 83.5617 21.1435ZM101.24 10.686C101.569 10.686 101.835 10.7957 102.039 11.015C102.258 11.2343 102.368 11.5007 102.368 11.814V18.065C102.368 19.6943 101.913 20.9633 101.005 21.872C100.112 22.765 98.8428 23.2115 97.1978 23.2115C95.5684 23.2115 94.3073 22.765 93.4143 21.872C92.5213 20.9633 92.0748 19.6943 92.0748 18.065V11.814C92.0748 11.5007 92.1766 11.2343 92.3803 11.015C92.5996 10.7957 92.8659 10.686 93.1793 10.686C93.5083 10.686 93.7746 10.7957 93.9783 11.015C94.1976 11.2343 94.3073 11.5007 94.3073 11.814V18.065C94.3073 20.1173 95.2708 21.1435 97.1978 21.1435C98.1534 21.1435 98.8819 20.885 99.3833 20.368C99.8846 19.851 100.135 19.0833 100.135 18.065V11.814C100.135 11.5007 100.237 11.2343 100.441 11.015C100.66 10.7957 100.926 10.686 101.24 10.686ZM105.002 21.073C104.861 20.8537 104.79 20.6422 104.79 20.4385C104.79 20.1252 104.955 19.8588 105.284 19.6395C105.44 19.5298 105.62 19.475 105.824 19.475C106.106 19.475 106.365 19.5925 106.6 19.8275C107.07 20.3602 107.571 20.7597 108.104 21.026C108.652 21.2923 109.302 21.4255 110.054 21.4255C110.649 21.4098 111.174 21.2767 111.629 21.026C112.083 20.7597 112.31 20.3367 112.31 19.757C112.31 19.2243 112.075 18.817 111.605 18.535C111.151 18.253 110.477 17.9945 109.584 17.7595C108.707 17.5245 107.978 17.2817 107.399 17.031C106.819 16.7647 106.325 16.3887 105.918 15.903C105.526 15.4017 105.331 14.7515 105.331 13.9525C105.331 13.2475 105.526 12.6287 105.918 12.096C106.325 11.5633 106.858 11.1482 107.516 10.8505C108.19 10.5528 108.918 10.404 109.702 10.404C110.454 10.404 111.198 10.545 111.934 10.827C112.686 11.109 113.297 11.5398 113.767 12.1195C113.955 12.3388 114.049 12.566 114.049 12.801C114.049 13.0517 113.924 13.2945 113.673 13.5295C113.516 13.6705 113.321 13.741 113.086 13.741C112.804 13.741 112.576 13.647 112.404 13.459C112.075 13.083 111.668 12.7932 111.182 12.5895C110.712 12.3858 110.187 12.284 109.608 12.284C109.012 12.284 108.503 12.4093 108.08 12.66C107.673 12.895 107.469 13.3023 107.469 13.882C107.485 14.4303 107.72 14.8377 108.174 15.104C108.644 15.3703 109.357 15.6288 110.313 15.8795C111.143 16.0988 111.832 16.3338 112.381 16.5845C112.929 16.8352 113.391 17.2112 113.767 17.7125C114.143 18.1982 114.331 18.8405 114.331 19.6395C114.331 20.3758 114.12 21.0182 113.697 21.5665C113.274 22.0992 112.717 22.5143 112.028 22.812C111.354 23.094 110.634 23.235 109.866 23.235C108.879 23.235 107.963 23.0627 107.117 22.718C106.286 22.3733 105.581 21.825 105.002 21.073ZM120.243 12.8715V19.8745C120.243 20.6578 120.595 21.0495 121.3 21.0495C121.41 21.0495 121.559 21.026 121.747 20.979C121.935 20.9163 122.084 20.885 122.193 20.885C122.397 20.885 122.569 20.9712 122.71 21.1435C122.851 21.3158 122.922 21.5352 122.922 21.8015C122.922 22.1305 122.734 22.4125 122.358 22.6475C121.982 22.8825 121.559 23 121.089 23C120.572 23 120.094 22.9452 119.655 22.8355C119.232 22.7258 118.848 22.4517 118.504 22.013C118.175 21.5587 118.01 20.8772 118.01 19.9685V12.8715H116.647C116.35 12.8715 116.099 12.7775 115.895 12.5895C115.707 12.3858 115.613 12.1352 115.613 11.8375C115.613 11.5398 115.707 11.297 115.895 11.109C116.099 10.921 116.35 10.827 116.647 10.827H118.01V8.853C118.01 8.53967 118.112 8.27333 118.316 8.054C118.535 7.83467 118.809 7.725 119.138 7.725C119.452 7.725 119.71 7.83467 119.914 8.054C120.133 8.27333 120.243 8.53967 120.243 8.853V10.827H122.193C122.491 10.827 122.734 10.9288 122.922 11.1325C123.125 11.3205 123.227 11.5633 123.227 11.861C123.227 12.1587 123.125 12.4015 122.922 12.5895C122.734 12.7775 122.491 12.8715 122.193 12.8715H120.243ZM135.821 10.5215C136.15 10.5215 136.416 10.6312 136.62 10.8505C136.839 11.0542 136.949 11.3283 136.949 11.673V21.872C136.949 22.1853 136.839 22.4517 136.62 22.671C136.416 22.8903 136.15 23 135.821 23C135.492 23 135.225 22.8982 135.022 22.6945C134.818 22.4752 134.716 22.201 134.716 21.872V21.261C134.309 21.8093 133.753 22.2793 133.048 22.671C132.343 23.047 131.583 23.235 130.768 23.235C129.703 23.235 128.731 22.9608 127.854 22.4125C126.992 21.8642 126.311 21.1043 125.81 20.133C125.324 19.146 125.081 18.0415 125.081 16.8195C125.081 15.5975 125.324 14.5008 125.81 13.5295C126.311 12.5425 126.992 11.7748 127.854 11.2265C128.716 10.6782 129.664 10.404 130.698 10.404C131.528 10.404 132.296 10.5763 133.001 10.921C133.721 11.2657 134.293 11.7043 134.716 12.237V11.673C134.716 11.344 134.818 11.0698 135.022 10.8505C135.225 10.6312 135.492 10.5215 135.821 10.5215ZM131.027 21.167C131.763 21.167 132.413 20.979 132.977 20.603C133.557 20.227 134.003 19.71 134.317 19.052C134.646 18.394 134.81 17.6498 134.81 16.8195C134.81 16.0048 134.646 15.2685 134.317 14.6105C134.003 13.9525 133.557 13.4355 132.977 13.0595C132.413 12.6678 131.763 12.472 131.027 12.472C130.29 12.472 129.632 12.66 129.053 13.036C128.489 13.412 128.042 13.929 127.713 14.587C127.4 15.245 127.243 15.9892 127.243 16.8195C127.243 17.6498 127.4 18.394 127.713 19.052C128.042 19.71 128.489 20.227 129.053 20.603C129.632 20.979 130.29 21.167 131.027 21.167ZM150.326 21.0495C150.561 21.3002 150.679 21.5743 150.679 21.872C150.679 22.1853 150.553 22.4517 150.303 22.671C150.068 22.8747 149.817 22.9765 149.551 22.9765C149.206 22.9765 148.932 22.8512 148.728 22.6005L144.099 17.689L142.689 18.958V21.872C142.689 22.1853 142.579 22.4517 142.36 22.671C142.156 22.8903 141.897 23 141.584 23C141.255 23 140.981 22.8903 140.762 22.671C140.558 22.4517 140.456 22.1853 140.456 21.872V6.738C140.456 6.42467 140.558 6.15833 140.762 5.939C140.981 5.71967 141.255 5.61 141.584 5.61C141.897 5.61 142.156 5.71967 142.36 5.939C142.579 6.15833 142.689 6.42467 142.689 6.738V16.279L148.446 10.9915C148.712 10.7565 148.987 10.639 149.269 10.639C149.535 10.639 149.778 10.7565 149.997 10.9915C150.216 11.2108 150.326 11.4458 150.326 11.6965C150.326 12.0098 150.177 12.2918 149.88 12.5425L145.814 16.1615L150.326 21.0495ZM163.199 10.5215C163.528 10.5215 163.794 10.6312 163.998 10.8505C164.217 11.0542 164.327 11.3283 164.327 11.673V21.872C164.327 22.1853 164.217 22.4517 163.998 22.671C163.794 22.8903 163.528 23 163.199 23C162.87 23 162.604 22.8982 162.4 22.6945C162.196 22.4752 162.094 22.201 162.094 21.872V21.261C161.687 21.8093 161.131 22.2793 160.426 22.671C159.721 23.047 158.961 23.235 158.146 23.235C157.081 23.235 156.11 22.9608 155.232 22.4125C154.371 21.8642 153.689 21.1043 153.188 20.133C152.702 19.146 152.459 18.0415 152.459 16.8195C152.459 15.5975 152.702 14.5008 153.188 13.5295C153.689 12.5425 154.371 11.7748 155.232 11.2265C156.094 10.6782 157.042 10.404 158.076 10.404C158.906 10.404 159.674 10.5763 160.379 10.921C161.1 11.2657 161.671 11.7043 162.094 12.237V11.673C162.094 11.344 162.196 11.0698 162.4 10.8505C162.604 10.6312 162.87 10.5215 163.199 10.5215ZM158.405 21.167C159.141 21.167 159.791 20.979 160.355 20.603C160.935 20.227 161.382 19.71 161.695 19.052C162.024 18.394 162.188 17.6498 162.188 16.8195C162.188 16.0048 162.024 15.2685 161.695 14.6105C161.382 13.9525 160.935 13.4355 160.355 13.0595C159.791 12.6678 159.141 12.472 158.405 12.472C157.669 12.472 157.011 12.66 156.431 13.036C155.867 13.412 155.42 13.929 155.091 14.587C154.778 15.245 154.621 15.9892 154.621 16.8195C154.621 17.6498 154.778 18.394 155.091 19.052C155.42 19.71 155.867 20.227 156.431 20.603C157.011 20.979 157.669 21.167 158.405 21.167ZM177.864 10.5215C178.193 10.5215 178.459 10.6312 178.663 10.8505C178.882 11.0542 178.992 11.3283 178.992 11.673V21.872C178.992 22.1853 178.882 22.4517 178.663 22.671C178.459 22.8903 178.193 23 177.864 23C177.535 23 177.268 22.8982 177.065 22.6945C176.861 22.4752 176.759 22.201 176.759 21.872V21.261C176.352 21.8093 175.796 22.2793 175.091 22.671C174.386 23.047 173.626 23.235 172.811 23.235C171.746 23.235 170.774 22.9608 169.897 22.4125C169.035 21.8642 168.354 21.1043 167.853 20.133C167.367 19.146 167.124 18.0415 167.124 16.8195C167.124 15.5975 167.367 14.5008 167.853 13.5295C168.354 12.5425 169.035 11.7748 169.897 11.2265C170.759 10.6782 171.707 10.404 172.741 10.404C173.571 10.404 174.339 10.5763 175.044 10.921C175.764 11.2657 176.336 11.7043 176.759 12.237V11.673C176.759 11.344 176.861 11.0698 177.065 10.8505C177.268 10.6312 177.535 10.5215 177.864 10.5215ZM173.07 21.167C173.806 21.167 174.456 20.979 175.02 20.603C175.6 20.227 176.046 19.71 176.36 19.052C176.689 18.394 176.853 17.6498 176.853 16.8195C176.853 16.0048 176.689 15.2685 176.36 14.6105C176.046 13.9525 175.6 13.4355 175.02 13.0595C174.456 12.6678 173.806 12.472 173.07 12.472C172.333 12.472 171.675 12.66 171.096 13.036C170.532 13.412 170.085 13.929 169.756 14.587C169.443 15.245 169.286 15.9892 169.286 16.8195C169.286 17.6498 169.443 18.394 169.756 19.052C170.085 19.71 170.532 20.227 171.096 20.603C171.675 20.979 172.333 21.167 173.07 21.167ZM188.586 10.404C191.406 10.404 192.816 12.096 192.816 15.48V21.872C192.816 22.1853 192.706 22.4517 192.487 22.671C192.283 22.8903 192.017 23 191.688 23C191.374 23 191.108 22.8903 190.889 22.671C190.685 22.4517 190.583 22.1853 190.583 21.872V15.5035C190.583 14.5792 190.372 13.8428 189.949 13.2945C189.526 12.7462 188.836 12.472 187.881 12.472C187.254 12.472 186.682 12.613 186.165 12.895C185.664 13.1613 185.264 13.5295 184.967 13.9995C184.685 14.4538 184.544 14.9552 184.544 15.5035V21.872C184.544 22.1853 184.434 22.4517 184.215 22.671C184.011 22.8903 183.745 23 183.416 23C183.087 23 182.82 22.8982 182.617 22.6945C182.413 22.4752 182.311 22.201 182.311 21.872V11.814C182.311 11.5007 182.413 11.2343 182.617 11.015C182.836 10.7957 183.102 10.686 183.416 10.686C183.745 10.686 184.011 10.7957 184.215 11.015C184.434 11.2343 184.544 11.5007 184.544 11.814V12.6365C184.951 12.0098 185.515 11.485 186.236 11.062C186.972 10.6233 187.755 10.404 188.586 10.404Z" fill="white"/>
<path d="M208.933 21.0965C209.106 21.3158 209.192 21.5743 209.192 21.872C209.192 22.2167 209.059 22.4987 208.792 22.718C208.542 22.9373 208.252 23.047 207.923 23.047C207.61 23.047 207.335 22.906 207.1 22.624L201.39 15.2685L198.758 17.7595V21.8485C198.758 22.1775 198.648 22.4517 198.429 22.671C198.21 22.8903 197.928 23 197.583 23C197.238 23 196.956 22.8903 196.737 22.671C196.533 22.4517 196.431 22.1775 196.431 21.8485V7.678C196.431 7.36467 196.541 7.09833 196.76 6.879C196.98 6.65967 197.262 6.55 197.606 6.55C197.951 6.55 198.225 6.65967 198.429 6.879C198.648 7.08267 198.758 7.349 198.758 7.678V14.9865L207.1 6.9025C207.398 6.63617 207.696 6.503 207.993 6.503C208.275 6.503 208.518 6.6205 208.722 6.8555C208.926 7.0905 209.027 7.34117 209.027 7.6075C209.027 7.8425 208.918 8.08533 208.698 8.336L203.129 13.6L208.933 21.0965ZM213.847 21.872C213.847 22.1853 213.737 22.4517 213.518 22.671C213.314 22.8903 213.048 23 212.719 23C212.406 23 212.139 22.8903 211.92 22.671C211.716 22.4517 211.614 22.1853 211.614 21.872V11.6965C211.614 11.3832 211.716 11.1168 211.92 10.8975C212.139 10.6782 212.406 10.5685 212.719 10.5685C213.048 10.5685 213.314 10.6782 213.518 10.8975C213.737 11.1168 213.847 11.3832 213.847 11.6965V21.872ZM212.719 9.0175C212.265 9.0175 211.936 8.93917 211.732 8.7825C211.544 8.61017 211.45 8.34383 211.45 7.9835V7.6075C211.45 7.2315 211.552 6.96517 211.755 6.8085C211.975 6.65183 212.304 6.5735 212.742 6.5735C213.181 6.5735 213.494 6.65967 213.682 6.832C213.886 6.98867 213.988 7.24717 213.988 7.6075V7.9835C213.988 8.3595 213.886 8.62583 213.682 8.7825C213.479 8.93917 213.158 9.0175 212.719 9.0175ZM220.393 12.8715V19.8745C220.393 20.6578 220.746 21.0495 221.451 21.0495C221.56 21.0495 221.709 21.026 221.897 20.979C222.085 20.9163 222.234 20.885 222.344 20.885C222.547 20.885 222.72 20.9712 222.861 21.1435C223.002 21.3158 223.072 21.5352 223.072 21.8015C223.072 22.1305 222.884 22.4125 222.508 22.6475C222.132 22.8825 221.709 23 221.239 23C220.722 23 220.244 22.9452 219.806 22.8355C219.383 22.7258 218.999 22.4517 218.654 22.013C218.325 21.5587 218.161 20.8772 218.161 19.9685V12.8715H216.798C216.5 12.8715 216.249 12.7775 216.046 12.5895C215.858 12.3858 215.764 12.1352 215.764 11.8375C215.764 11.5398 215.858 11.297 216.046 11.109C216.249 10.921 216.5 10.827 216.798 10.827H218.161V8.853C218.161 8.53967 218.263 8.27333 218.466 8.054C218.686 7.83467 218.96 7.725 219.289 7.725C219.602 7.725 219.861 7.83467 220.064 8.054C220.284 8.27333 220.393 8.53967 220.393 8.853V10.827H222.344C222.641 10.827 222.884 10.9288 223.072 11.1325C223.276 11.3205 223.378 11.5633 223.378 11.861C223.378 12.1587 223.276 12.4015 223.072 12.5895C222.884 12.7775 222.641 12.8715 222.344 12.8715H220.393ZM235.971 10.5215C236.3 10.5215 236.566 10.6312 236.77 10.8505C236.989 11.0542 237.099 11.3283 237.099 11.673V21.872C237.099 22.1853 236.989 22.4517 236.77 22.671C236.566 22.8903 236.3 23 235.971 23C235.642 23 235.376 22.8982 235.172 22.6945C234.968 22.4752 234.866 22.201 234.866 21.872V21.261C234.459 21.8093 233.903 22.2793 233.198 22.671C232.493 23.047 231.733 23.235 230.918 23.235C229.853 23.235 228.882 22.9608 228.004 22.4125C227.143 21.8642 226.461 21.1043 225.96 20.133C225.474 19.146 225.231 18.0415 225.231 16.8195C225.231 15.5975 225.474 14.5008 225.96 13.5295C226.461 12.5425 227.143 11.7748 228.004 11.2265C228.866 10.6782 229.814 10.404 230.848 10.404C231.678 10.404 232.446 10.5763 233.151 10.921C233.872 11.2657 234.443 11.7043 234.866 12.237V11.673C234.866 11.344 234.968 11.0698 235.172 10.8505C235.376 10.6312 235.642 10.5215 235.971 10.5215ZM231.177 21.167C231.913 21.167 232.563 20.979 233.127 20.603C233.707 20.227 234.154 19.71 234.467 19.052C234.796 18.394 234.96 17.6498 234.96 16.8195C234.96 16.0048 234.796 15.2685 234.467 14.6105C234.154 13.9525 233.707 13.4355 233.127 13.0595C232.563 12.6678 231.913 12.472 231.177 12.472C230.441 12.472 229.783 12.66 229.203 13.036C228.639 13.412 228.192 13.929 227.863 14.587C227.55 15.245 227.393 15.9892 227.393 16.8195C227.393 17.6498 227.55 18.394 227.863 19.052C228.192 19.71 228.639 20.227 229.203 20.603C229.783 20.979 230.441 21.167 231.177 21.167Z" fill="#FFC107"/>
</svg>
